<svg xmlns="http://www.w3.org/2000/svg" viewBox="0 0 800 500" fill="none">
  <rect width="800" height="500" fill="#FAF8F5"/>
  <rect x="0" y="0" width="180" height="500" fill="white" stroke="#7C9A6E" stroke-opacity="0.08"/>
  <rect x="20" y="20" width="140" height="24" rx="4" fill="#7C9A6E" opacity="0.35"/>
  <rect x="20" y="70" width="140" height="32" rx="6" fill="#7C9A6E" opacity="0.1"/>
  <rect x="20" y="112" width="140" height="32" rx="6" fill="transparent"/>
  <rect x="20" y="154" width="140" height="32" rx="6" fill="transparent"/>
  <rect x="20" y="196" width="140" height="32" rx="6" fill="transparent"/>
  <rect x="40" y="78" width="80" height="14" rx="3" fill="#7C9A6E" opacity="0.4"/>
  <rect x="40" y="120" width="90" height="14" rx="3" fill="#6B6B6B" opacity="0.15"/>
  <rect x="40" y="162" width="70" height="14" rx="3" fill="#6B6B6B" opacity="0.15"/>
  <rect x="40" y="204" width="85" height="14" rx="3" fill="#6B6B6B" opacity="0.15"/>
  <rect x="210" y="30" width="160" height="90" rx="12" fill="white" stroke="#7C9A6E" stroke-opacity="0.1"/>
  <rect x="390" y="30" width="160" height="90" rx="12" fill="white" stroke="#B8977E" stroke-opacity="0.1"/>
  <rect x="570" y="30" width="160" height="90" rx="12" fill="white" stroke="#D4A0A0" stroke-opacity="0.1"/>
  <rect x="230" y="50" width="60" height="24" rx="4" fill="#7C9A6E" opacity="0.25"/>
  <rect x="230" y="85" width="100" height="12" rx="3" fill="#6B6B6B" opacity="0.1"/>
  <rect x="410" y="50" width="60" height="24" rx="4" fill="#B8977E" opacity="0.25"/>
  <rect x="410" y="85" width="100" height="12" rx="3" fill="#6B6B6B" opacity="0.1"/>
  <rect x="590" y="50" width="60" height="24" rx="4" fill="#D4A0A0" opacity="0.25"/>
  <rect x="590" y="85" width="100" height="12" rx="3" fill="#6B6B6B" opacity="0.1"/>
  <rect x="210" y="150" width="340" height="320" rx="12" fill="white" stroke="#7C9A6E" stroke-opacity="0.08"/>
  <rect x="230" y="170" width="120" height="16" rx="3" fill="#3D3D3D" opacity="0.1"/>
  <rect x="230" y="200" width="300" height="200" rx="8" fill="#7C9A6E" opacity="0.04"/>
  <rect x="570" y="150" width="200" height="320" rx="12" fill="white" stroke="#B8977E" stroke-opacity="0.08"/>
  <rect x="590" y="170" width="80" height="16" rx="3" fill="#3D3D3D" opacity="0.1"/>
  <rect x="590" y="200" width="160" height="30" rx="6" fill="#7C9A6E" opacity="0.06"/>
  <rect x="590" y="240" width="160" height="30" rx="6" fill="#B8977E" opacity="0.06"/>
  <rect x="590" y="280" width="160" height="30" rx="6" fill="#D4A0A0" opacity="0.06"/>
</svg>
