<svg xmlns="http://www.w3.org/2000/svg" viewBox="0 0 800 500" fill="none">
  <rect width="800" height="500" fill="#FAF8F5"/>
  <rect x="0" y="0" width="800" height="50" fill="white"/>
  <rect x="20" y="15" width="120" height="20" rx="4" fill="#7C9A6E" opacity="0.4"/>
  <rect x="80" y="80" width="200" height="24" rx="4" fill="#3D3D3D" opacity="0.1"/>
  <rect x="80" y="115" width="300" height="12" rx="3" fill="#6B6B6B" opacity="0.06"/>
  <rect x="80" y="160" width="380" height="300" rx="12" fill="white" stroke="#7C9A6E" stroke-opacity="0.1"/>
  <rect x="100" y="180" width="130" height="38" rx="8" fill="#7C9A6E" opacity="0.08"/>
  <rect x="100" y="230" width="340" height="40" rx="8" fill="#F5F5F5"/>
  <rect x="100" y="282" width="340" height="40" rx="8" fill="#F5F5F5"/>
  <rect x="100" y="334" width="340" height="40" rx="8" fill="#F5F5F5"/>
  <rect x="100" y="400" width="340" height="44" rx="8" fill="#7C9A6E" opacity="0.6"/>
  <rect x="500" y="160" width="260" height="300" rx="12" fill="white" stroke="#B8977E" stroke-opacity="0.1"/>
  <rect x="520" y="180" width="100" height="16" rx="3" fill="#3D3D3D" opacity="0.08"/>
  <rect x="520" y="210" width="220" height="60" rx="8" fill="#7C9A6E" opacity="0.05"/>
  <rect x="520" y="285" width="220" height="60" rx="8" fill="#B8977E" opacity="0.05"/>
  <rect x="520" y="360" width="220" height="60" rx="8" fill="#D4A0A0" opacity="0.05"/>
</svg>
