<svg xmlns="http://www.w3.org/2000/svg" viewBox="0 0 1200 600" fill="none">
  <rect width="1200" height="600" fill="#FAF8F5"/>
  <ellipse cx="600" cy="250" rx="500" ry="250" fill="#7C9A6E" opacity="0.04"/>
  <rect x="80" y="40" width="1040" height="60" rx="8" fill="white" stroke="#7C9A6E" stroke-opacity="0.1"/>
  <rect x="100" y="55" width="160" height="28" rx="4" fill="#7C9A6E" opacity="0.35"/>
  <rect x="900" y="55" width="80" height="28" rx="6" fill="#B8977E" opacity="0.15"/>
  <rect x="990" y="55" width="80" height="28" rx="6" fill="#7C9A6E"/>
  <rect x="250" y="180" width="450" height="48" rx="6" fill="#3D3D3D" opacity="0.08"/>
  <rect x="300" y="250" width="350" height="18" rx="3" fill="#6B6B6B" opacity="0.06"/>
  <rect x="350" y="280" width="250" height="18" rx="3" fill="#6B6B6B" opacity="0.04"/>
  <rect x="450" y="330" width="160" height="50" rx="8" fill="#7C9A6E" opacity="0.6"/>
  <rect x="620" y="330" width="140" height="50" rx="8" fill="#B8977E" opacity="0.2"/>
  <rect x="100" y="440" width="300" height="130" rx="16" fill="white" stroke="#7C9A6E" stroke-opacity="0.08"/>
  <rect x="440" y="440" width="300" height="130" rx="16" fill="white" stroke="#B8977E" stroke-opacity="0.08"/>
  <rect x="780" y="440" width="300" height="130" rx="16" fill="white" stroke="#D4A0A0" stroke-opacity="0.08"/>
</svg>
