<svg xmlns="http://www.w3.org/2000/svg" viewBox="0 0 800 500" fill="none">
  <rect width="800" height="500" fill="#FAF8F5"/>
  <rect x="0" y="0" width="800" height="50" fill="white" opacity="0.9"/>
  <rect x="20" y="15" width="120" height="20" rx="4" fill="#7C9A6E" opacity="0.4"/>
  <rect x="600" y="15" width="60" height="20" rx="6" fill="#B8977E" opacity="0.15"/>
  <rect x="680" y="15" width="80" height="20" rx="6" fill="#7C9A6E"/>
  <rect x="150" y="100" width="500" height="36" rx="5" fill="#3D3D3D" opacity="0.08"/>
  <rect x="200" y="150" width="400" height="14" rx="3" fill="#6B6B6B" opacity="0.06"/>
  <rect x="300" y="185" width="200" height="42" rx="8" fill="#7C9A6E" opacity="0.5"/>
  <rect x="40" y="270" width="230" height="200" rx="12" fill="white" stroke="#7C9A6E" stroke-opacity="0.08"/>
  <rect x="285" y="270" width="230" height="200" rx="12" fill="white" stroke="#B8977E" stroke-opacity="0.08"/>
  <rect x="530" y="270" width="230" height="200" rx="12" fill="white" stroke="#D4A0A0" stroke-opacity="0.08"/>
  <rect x="55" y="285" width="200" height="90" rx="8" fill="#7C9A6E" opacity="0.06"/>
  <rect x="300" y="285" width="200" height="90" rx="8" fill="#B8977E" opacity="0.06"/>
  <rect x="545" y="285" width="200" height="90" rx="8" fill="#D4A0A0" opacity="0.06"/>
</svg>
