<svg xmlns="http://www.w3.org/2000/svg" viewBox="0 0 375 812" fill="none">
  <rect width="375" height="812" fill="#FAF8F5"/>
  <rect x="0" y="0" width="375" height="60" fill="white"/>
  <rect x="20" y="20" width="100" height="18" rx="4" fill="#7C9A6E" opacity="0.4"/>
  <rect x="315" y="20" width="40" height="18" rx="4" fill="#7C9A6E" opacity="0.25"/>
  <rect x="50" y="110" width="275" height="30" rx="4" fill="#3D3D3D" opacity="0.08"/>
  <rect x="80" y="155" width="215" height="12" rx="3" fill="#6B6B6B" opacity="0.06"/>
  <rect x="100" y="195" width="175" height="44" rx="8" fill="#7C9A6E" opacity="0.5"/>
  <rect x="20" y="280" width="335" height="140" rx="12" fill="white" stroke="#7C9A6E" stroke-opacity="0.08"/>
  <rect x="35" y="295" width="305" height="70" rx="8" fill="#7C9A6E" opacity="0.04"/>
  <rect x="35" y="380" width="150" height="14" rx="3" fill="#3D3D3D" opacity="0.08"/>
  <rect x="35" y="400" width="260" height="10" rx="2" fill="#6B6B6B" opacity="0.05"/>
  <rect x="20" y="440" width="335" height="140" rx="12" fill="white" stroke="#B8977E" stroke-opacity="0.08"/>
  <rect x="35" y="455" width="305" height="70" rx="8" fill="#B8977E" opacity="0.04"/>
  <rect x="35" y="540" width="150" height="14" rx="3" fill="#3D3D3D" opacity="0.08"/>
  <rect x="35" y="560" width="260" height="10" rx="2" fill="#6B6B6B" opacity="0.05"/>
  <rect x="20" y="600" width="335" height="140" rx="12" fill="white" stroke="#D4A0A0" stroke-opacity="0.08"/>
  <rect x="35" y="615" width="305" height="70" rx="8" fill="#D4A0A0" opacity="0.04"/>
  <rect x="35" y="700" width="150" height="14" rx="3" fill="#3D3D3D" opacity="0.08"/>
  <rect x="35" y="720" width="260" height="10" rx="2" fill="#6B6B6B" opacity="0.05"/>
  <rect x="30" y="765" width="315" height="30" rx="6" fill="#7C9A6E" opacity="0.08"/>
</svg>
