<svg xmlns="http://www.w3.org/2000/svg" viewBox="0 0 600 400" fill="none">
  <rect width="600" height="400" fill="#FAF8F5"/>
  <rect x="40" y="30" width="520" height="50" rx="8" fill="white" stroke="#7C9A6E" stroke-opacity="0.15"/>
  <rect x="60" y="45" width="130" height="20" rx="4" fill="#7C9A6E" opacity="0.4"/>
  <rect x="420" y="45" width="60" height="20" rx="10" fill="#B8977E" opacity="0.2"/>
  <rect x="490" y="45" width="50" height="20" rx="10" fill="#7C9A6E" opacity="0.6"/>
  <rect x="120" y="120" width="360" height="36" rx="4" fill="#3D3D3D" opacity="0.1"/>
  <rect x="150" y="170" width="300" height="16" rx="3" fill="#6B6B6B" opacity="0.08"/>
  <rect x="220" y="210" width="160" height="40" rx="8" fill="#7C9A6E" opacity="0.5"/>
  <rect x="40" y="280" width="160" height="100" rx="12" fill="white" stroke="#7C9A6E" stroke-opacity="0.1"/>
  <rect x="220" y="280" width="160" height="100" rx="12" fill="white" stroke="#B8977E" stroke-opacity="0.1"/>
  <rect x="400" y="280" width="160" height="100" rx="12" fill="white" stroke="#D4A0A0" stroke-opacity="0.1"/>
  <circle cx="120" cy="310" r="16" fill="#7C9A6E" opacity="0.2"/>
  <circle cx="300" cy="310" r="16" fill="#B8977E" opacity="0.2"/>
  <circle cx="480" cy="310" r="16" fill="#D4A0A0" opacity="0.2"/>
</svg>
