<svg xmlns="http://www.w3.org/2000/svg" viewBox="0 0 1200 600" fill="none">
  <rect width="1200" height="600" fill="#FFF8F0"/>
  <ellipse cx="600" cy="200" rx="400" ry="200" fill="#E07830" opacity="0.06"/>
  <rect x="80" y="40" width="1040" height="60" rx="8" fill="white" stroke="#E07830" stroke-opacity="0.15"/>
  <rect x="100" y="55" width="150" height="28" rx="4" fill="#E07830" opacity="0.4"/>
  <rect x="850" y="55" width="80" height="28" rx="14" fill="#E07830" opacity="0.2"/>
  <rect x="940" y="55" width="80" height="28" rx="14" fill="#E07830" opacity="0.2"/>
  <rect x="1030" y="55" width="70" height="28" rx="14" fill="#E07830"/>
  <text x="1065" y="74" font-family="sans-serif" font-size="13" fill="white" text-anchor="middle">Order</text>
  <rect x="200" y="180" width="450" height="48" rx="6" fill="#2D1810" opacity="0.12"/>
  <rect x="200" y="250" width="550" height="20" rx="3" fill="#6B5A4E" opacity="0.08"/>
  <rect x="200" y="280" width="480" height="20" rx="3" fill="#6B5A4E" opacity="0.06"/>
  <rect x="200" y="330" width="160" height="50" rx="25" fill="#E07830" opacity="0.7"/>
  <rect x="380" y="330" width="160" height="50" rx="25" fill="#43A047" opacity="0.3"/>
  <rect x="80" y="440" width="240" height="130" rx="16" fill="white" stroke="#E07830" stroke-opacity="0.1"/>
  <rect x="360" y="440" width="240" height="130" rx="16" fill="white" stroke="#E07830" stroke-opacity="0.1"/>
  <rect x="640" y="440" width="240" height="130" rx="16" fill="white" stroke="#E07830" stroke-opacity="0.1"/>
  <rect x="920" y="440" width="240" height="130" rx="16" fill="white" stroke="#E07830" stroke-opacity="0.1"/>
</svg>
