<svg xmlns="http://www.w3.org/2000/svg" viewBox="0 0 800 500" fill="none">
  <rect width="800" height="500" fill="#FFF8F0"/>
  <rect x="0" y="0" width="800" height="50" fill="white" opacity="0.9"/>
  <rect x="20" y="15" width="100" height="20" rx="4" fill="#E07830" opacity="0.5"/>
  <rect x="600" y="15" width="60" height="20" rx="10" fill="#E07830" opacity="0.2"/>
  <rect x="670" y="15" width="60" height="20" rx="10" fill="#E07830" opacity="0.2"/>
  <rect x="740" y="15" width="40" height="20" rx="10" fill="#E07830"/>
  <rect x="100" y="100" width="350" height="40" rx="5" fill="#2D1810" opacity="0.12"/>
  <rect x="100" y="155" width="450" height="14" rx="3" fill="#6B5A4E" opacity="0.08"/>
  <rect x="100" y="178" width="380" height="14" rx="3" fill="#6B5A4E" opacity="0.06"/>
  <rect x="100" y="215" width="120" height="38" rx="19" fill="#E07830" opacity="0.6"/>
  <rect x="235" y="215" width="120" height="38" rx="19" fill="#43A047" opacity="0.25"/>
  <rect x="30" y="300" width="170" height="170" rx="12" fill="white" stroke="#E07830" stroke-opacity="0.1"/>
  <rect x="220" y="300" width="170" height="170" rx="12" fill="white" stroke="#E07830" stroke-opacity="0.1"/>
  <rect x="410" y="300" width="170" height="170" rx="12" fill="white" stroke="#E07830" stroke-opacity="0.1"/>
  <rect x="600" y="300" width="170" height="170" rx="12" fill="white" stroke="#E07830" stroke-opacity="0.1"/>
  <circle cx="115" cy="355" r="28" fill="#F09848" opacity="0.2"/>
  <circle cx="305" cy="355" r="28" fill="#E85D75" opacity="0.2"/>
  <circle cx="495" cy="355" r="28" fill="#F9A825" opacity="0.2"/>
  <circle cx="685" cy="355" r="28" fill="#66BB6A" opacity="0.2"/>
</svg>
