<svg xmlns="http://www.w3.org/2000/svg" viewBox="0 0 800 500" fill="none">
  <rect width="800" height="500" fill="#FFF8F0"/>
  <rect x="0" y="0" width="800" height="50" fill="white" opacity="0.9"/>
  <rect x="20" y="15" width="100" height="20" rx="4" fill="#E07830" opacity="0.5"/>
  <rect x="150" y="70" width="200" height="30" rx="4" fill="#2D1810" opacity="0.12"/>
  <rect x="150" y="112" width="500" height="14" rx="3" fill="#6B5A4E" opacity="0.06"/>
  <rect x="30" y="60" width="90" height="30" rx="15" fill="#E07830" opacity="0.15"/>
  <rect x="40" y="150" width="220" height="150" rx="12" fill="white" stroke="#E07830" stroke-opacity="0.1"/>
  <rect x="290" y="150" width="220" height="150" rx="12" fill="white" stroke="#E07830" stroke-opacity="0.1"/>
  <rect x="540" y="150" width="220" height="150" rx="12" fill="white" stroke="#E07830" stroke-opacity="0.1"/>
  <rect x="50" y="160" width="200" height="80" rx="8" fill="#F09848" opacity="0.1"/>
  <rect x="300" y="160" width="200" height="80" rx="8" fill="#E85D75" opacity="0.1"/>
  <rect x="550" y="160" width="200" height="80" rx="8" fill="#66BB6A" opacity="0.1"/>
  <rect x="40" y="330" width="220" height="150" rx="12" fill="white" stroke="#E07830" stroke-opacity="0.1"/>
  <rect x="290" y="330" width="220" height="150" rx="12" fill="white" stroke="#E07830" stroke-opacity="0.1"/>
  <rect x="540" y="330" width="220" height="150" rx="12" fill="white" stroke="#E07830" stroke-opacity="0.1"/>
  <rect x="50" y="340" width="200" height="80" rx="8" fill="#F9A825" opacity="0.1"/>
  <rect x="300" y="340" width="200" height="80" rx="8" fill="#43A047" opacity="0.1"/>
  <rect x="550" y="340" width="200" height="80" rx="8" fill="#E07830" opacity="0.08"/>
</svg>
