<svg xmlns="http://www.w3.org/2000/svg" viewBox="0 0 375 812" fill="none">
  <rect width="375" height="812" fill="#FFF8F0"/>
  <rect x="0" y="0" width="375" height="60" fill="white"/>
  <rect x="20" y="20" width="80" height="18" rx="4" fill="#E07830" opacity="0.5"/>
  <rect x="315" y="20" width="40" height="18" rx="4" fill="#E07830" opacity="0.3"/>
  <rect x="30" y="100" width="315" height="32" rx="4" fill="#2D1810" opacity="0.12"/>
  <rect x="30" y="148" width="280" height="12" rx="3" fill="#6B5A4E" opacity="0.08"/>
  <rect x="30" y="168" width="240" height="12" rx="3" fill="#6B5A4E" opacity="0.06"/>
  <rect x="30" y="205" width="140" height="44" rx="22" fill="#E07830" opacity="0.6"/>
  <rect x="185" y="205" width="140" height="44" rx="22" fill="#43A047" opacity="0.25"/>
  <rect x="20" y="290" width="160" height="180" rx="12" fill="white" stroke="#E07830" stroke-opacity="0.1"/>
  <rect x="195" y="290" width="160" height="180" rx="12" fill="white" stroke="#E07830" stroke-opacity="0.1"/>
  <circle cx="100" cy="345" r="30" fill="#F09848" opacity="0.2"/>
  <circle cx="275" cy="345" r="30" fill="#E85D75" opacity="0.2"/>
  <rect x="20" y="500" width="160" height="180" rx="12" fill="white" stroke="#E07830" stroke-opacity="0.1"/>
  <rect x="195" y="500" width="160" height="180" rx="12" fill="white" stroke="#E07830" stroke-opacity="0.1"/>
  <circle cx="100" cy="555" r="30" fill="#F9A825" opacity="0.2"/>
  <circle cx="275" cy="555" r="30" fill="#66BB6A" opacity="0.2"/>
  <rect x="20" y="720" width="335" height="60" rx="12" fill="#E07830" opacity="0.08"/>
</svg>
