<svg xmlns="http://www.w3.org/2000/svg" viewBox="0 0 600 400" fill="none">
  <rect width="600" height="400" fill="#FFF8F0"/>
  <rect x="40" y="30" width="520" height="50" rx="8" fill="#E07830" opacity="0.15"/>
  <rect x="60" y="45" width="120" height="20" rx="4" fill="#E07830" opacity="0.4"/>
  <rect x="400" y="45" width="60" height="20" rx="10" fill="#E07830" opacity="0.3"/>
  <rect x="470" y="45" width="60" height="20" rx="10" fill="#E07830" opacity="0.3"/>
  <rect x="40" y="100" width="300" height="36" rx="4" fill="#2D1810" opacity="0.15"/>
  <rect x="40" y="148" width="400" height="16" rx="3" fill="#6B5A4E" opacity="0.12"/>
  <rect x="40" y="174" width="350" height="16" rx="3" fill="#6B5A4E" opacity="0.08"/>
  <rect x="40" y="210" width="130" height="40" rx="20" fill="#E07830" opacity="0.6"/>
  <rect x="185" y="210" width="130" height="40" rx="20" fill="#43A047" opacity="0.3"/>
  <rect x="40" y="280" width="120" height="90" rx="12" fill="#F09848" opacity="0.2"/>
  <rect x="175" y="280" width="120" height="90" rx="12" fill="#E85D75" opacity="0.15"/>
  <rect x="310" y="280" width="120" height="90" rx="12" fill="#F9A825" opacity="0.15"/>
  <rect x="445" y="280" width="120" height="90" rx="12" fill="#66BB6A" opacity="0.15"/>
  <circle cx="100" cy="310" r="16" fill="#F09848" opacity="0.35"/>
  <circle cx="235" cy="310" r="16" fill="#E85D75" opacity="0.3"/>
  <circle cx="370" cy="310" r="16" fill="#F9A825" opacity="0.3"/>
  <circle cx="505" cy="310" r="16" fill="#66BB6A" opacity="0.3"/>
</svg>
